<svg width="29" height="28" viewBox="0 0 29 28" fill="none" xmlns="http://www.w3.org/2000/svg">
<path d="M26.7399 19.3174C26.1484 18.816 25.3705 18.6007 24.6031 18.7285L17.156 19.9701C17.1175 19.327 16.8594 18.7267 16.4009 18.2682C15.9056 17.7739 15.2564 17.5061 14.5468 17.5053C9.8104 17.5193 6.68577 17.5201 5.9954 17.507C5.51327 16.9697 4.82202 16.625 4.0459 16.625H2.2959C1.8129 16.625 1.4209 17.017 1.4209 17.5V26.25C1.4209 26.733 1.8129 27.125 2.2959 27.125H4.0459C4.81852 27.125 5.50715 26.7829 5.9884 26.25H14.5459C14.6071 26.25 14.6693 26.2439 14.7288 26.2308L25.5875 23.9041C26.7941 23.6451 27.67 22.5619 27.67 21.3273C27.6709 20.5511 27.3314 19.8188 26.7399 19.3174ZM4.0459 25.375H3.1709V18.375H4.0459C4.52802 18.375 4.9209 18.7679 4.9209 19.25V24.5C4.9209 24.9821 4.52802 25.375 4.0459 25.375ZM25.2218 22.1926L14.4531 24.5H6.6709V19.2622C7.7594 19.271 9.96352 19.2684 14.5511 19.2553H14.5538C14.7848 19.2553 15.0009 19.3445 15.1645 19.5072C15.3299 19.6726 15.4209 19.8923 15.4209 20.1276C15.4209 20.6089 15.0298 21 14.5485 21H10.1709C9.6879 21 9.2959 21.392 9.2959 21.875C9.2959 22.358 9.6879 22.75 10.1709 22.75H14.5485C15.3316 22.75 16.0281 22.3974 16.5094 21.8514L24.891 20.454C25.1518 20.412 25.4064 20.4811 25.6085 20.6517C25.8098 20.8232 25.9209 21.063 25.9209 21.3273C25.9209 21.742 25.6269 22.106 25.2218 22.1926ZM12.7959 16.625H16.2959C20.6376 16.625 24.1709 13.0918 24.1709 8.75C24.1709 4.40825 20.6376 0.875 16.2959 0.875H12.7959C8.45415 0.875 4.9209 4.40825 4.9209 8.75C4.9209 13.0918 8.45415 16.625 12.7959 16.625ZM22.4209 8.75C22.4209 11.5273 20.5615 13.874 18.024 14.623C19.6436 13.1792 20.6709 11.0845 20.6709 8.75C20.6709 6.4155 19.6436 4.32075 18.024 2.877C20.5615 3.626 22.4209 5.97275 22.4209 8.75ZM12.7959 2.625C16.1734 2.625 18.9209 5.3725 18.9209 8.75C18.9209 12.1275 16.1734 14.875 12.7959 14.875C9.4184 14.875 6.6709 12.1275 6.6709 8.75C6.6709 5.3725 9.4184 2.625 12.7959 2.625Z" fill="white"/>
<path d="M12.5 6L13.22 7.50895L14.8776 7.72746L13.665 8.87855L13.9695 10.5225L12.5 9.725L11.0305 10.5225L11.335 8.87855L10.1224 7.72746L11.78 7.50895L12.5 6Z" stroke="white" stroke-linejoin="round"/>
</svg>
