<svg width="27" height="24" viewBox="0 0 27 24" fill="none" xmlns="http://www.w3.org/2000/svg">
<path d="M26.5771 6.23699C26.5771 3.23095 24.3709 0.771461 21.6745 0.771461C19.407 0.771461 17.5073 2.54776 16.9557 4.87061H3.90251C2.1866 4.87061 0.838379 6.37363 0.838379 8.28657V20.584C0.838379 22.497 2.1866 24 3.90251 24H21.0617C22.7776 24 24.1258 22.497 24.1258 20.584V10.951C25.5966 9.99455 26.5771 8.28657 26.5771 6.23699ZM22.9001 18.5344H17.9362C16.9557 18.5344 16.159 17.9879 16.159 16.8265C16.159 15.665 17.017 15.4601 17.9975 15.4601H22.9001V18.5344ZM22.9001 14.0937H17.9362C16.2816 14.0937 14.9334 14.9135 14.9334 16.8265C14.9334 18.7394 16.2816 19.9008 17.9362 19.9008H22.9001V20.584C22.9001 21.7454 22.1035 22.6336 21.0617 22.6336H3.90251C2.86071 22.6336 2.06403 21.7454 2.06403 20.584V8.28657C2.06403 7.12514 2.86071 6.23699 3.90251 6.23699H16.7719C16.7719 9.24304 18.978 11.7025 21.6745 11.7025C22.1035 11.7025 22.5324 11.6342 22.9001 11.4976V14.0937ZM21.6745 10.3361C19.6522 10.3361 17.9975 8.49153 17.9975 6.23699C17.9975 3.98246 19.6522 2.13784 21.6745 2.13784C23.6968 2.13784 25.3514 3.98246 25.3514 6.23699C25.3514 8.49153 23.6968 10.3361 21.6745 10.3361Z" fill="white"/>
<path d="M17.9976 17.1681C18.336 17.1681 18.6104 16.8622 18.6104 16.4849C18.6104 16.1075 18.336 15.8017 17.9976 15.8017C17.6591 15.8017 17.3848 16.1075 17.3848 16.4849C17.3848 16.8622 17.6591 17.1681 17.9976 17.1681Z" fill="white"/>
</svg>
