<svg width="17" height="16" viewBox="0 0 17 16" fill="none" xmlns="http://www.w3.org/2000/svg">
<path d="M12.5034 5.33333C12.5034 4.27246 12.082 3.25505 11.3318 2.5049C10.5817 1.75476 9.56428 1.33333 8.50342 1.33333C7.44255 1.33333 6.42514 1.75476 5.67499 2.5049C4.92485 3.25505 4.50342 4.27246 4.50342 5.33333C4.50342 10 2.50342 11.3333 2.50342 11.3333H14.5034C14.5034 11.3333 12.5034 10 12.5034 5.33333Z" stroke="black" stroke-linecap="round" stroke-linejoin="round"/>
<path d="M9.65676 14C9.53956 14.2021 9.37133 14.3698 9.16891 14.4864C8.9665 14.6029 8.73702 14.6643 8.50343 14.6643C8.26984 14.6643 8.04036 14.6029 7.83795 14.4864C7.63554 14.3698 7.4673 14.2021 7.3501 14" stroke="black" stroke-linecap="round" stroke-linejoin="round"/>
<circle cx="11.5005" cy="2.5" r="2.5" fill="#FA3E3E"/>
</svg>
