<svg width="25" height="24" viewBox="0 0 25 24" fill="none" xmlns="http://www.w3.org/2000/svg">
<path d="M19.8335 5.25H4.8335C4.00507 5.25 3.3335 5.92157 3.3335 6.75V17.25C3.3335 18.0784 4.00507 18.75 4.8335 18.75H19.8335C20.6619 18.75 21.3335 18.0784 21.3335 17.25V6.75C21.3335 5.92157 20.6619 5.25 19.8335 5.25Z" stroke="black" stroke-opacity="0.3" stroke-linecap="round" stroke-linejoin="round"/>
<path d="M5.3335 11.5H9.47516C9.60951 11.4991 9.73988 11.5588 9.84374 11.6689C9.9476 11.7791 10.0184 11.9327 10.0439 12.1032C10.1553 12.7812 10.4435 13.3893 10.8603 13.8256C11.2771 14.2619 11.7972 14.5 12.3335 14.5C12.8698 14.5 13.3899 14.2619 13.8067 13.8256C14.2235 13.3893 14.5117 12.7812 14.6231 12.1032C14.6486 11.9327 14.7194 11.7791 14.8233 11.6689C14.9271 11.5588 15.0575 11.4991 15.1918 11.5H19.3335" stroke="black" stroke-opacity="0.3" stroke-linecap="round" stroke-linejoin="round"/>
<path d="M5.3335 8.5H19.3335" stroke="black" stroke-opacity="0.3" stroke-linecap="round" stroke-linejoin="round"/>
</svg>
