<svg width="8" height="8" viewBox="0 0 8 8" fill="none" xmlns="http://www.w3.org/2000/svg">
<g clip-path="url(#clip0_51_1993)">
<path d="M5.66037 5.84052C5.15422 6.22633 4.53791 6.44007 3.90157 6.45047C1.82891 6.45047 0.644531 4.08171 0.644531 4.08171C1.01284 3.39534 1.52368 2.79566 2.14277 2.32291M3.27977 1.78402C3.48358 1.73631 3.69225 1.71247 3.90157 1.71296C5.97423 1.71296 7.15861 4.08171 7.15861 4.08171C6.97887 4.41796 6.76452 4.73452 6.51905 5.02626M4.52929 4.70944C4.44797 4.79671 4.3499 4.86671 4.24094 4.91526C4.13198 4.96381 4.01435 4.98991 3.89508 4.99202C3.77581 4.99412 3.65734 4.97218 3.54673 4.92751C3.43613 4.88283 3.33565 4.81633 3.2513 4.73198C3.16695 4.64763 3.10046 4.54716 3.05578 4.43655C3.0111 4.32594 2.98916 4.20747 2.99127 4.0882C2.99337 3.96893 3.01948 3.85131 3.06803 3.74235C3.11658 3.63338 3.18658 3.53532 3.27385 3.45399" stroke="white" stroke-opacity="0.6" stroke-width="0.888283" stroke-linecap="round" stroke-linejoin="round"/>
<path d="M0.644531 0.824707L7.15861 7.33879" stroke="white" stroke-opacity="0.6" stroke-width="0.888283" stroke-linecap="round" stroke-linejoin="round"/>
</g>
<defs>
<clipPath id="clip0_51_1993">
<rect width="7.10627" height="7.10627" fill="white" transform="translate(0.348145 0.528595)"/>
</clipPath>
</defs>
</svg>
