<svg width="35" height="35" viewBox="0 0 35 35" fill="none" xmlns="http://www.w3.org/2000/svg">
<circle cx="17.2215" cy="17.6648" r="17.0292" fill="#E692A5"/>
<path d="M23.4139 18.4388V26.1793H11.0291V18.4388" stroke="#E4325A" stroke-width="1.5481" stroke-linecap="round" stroke-linejoin="round"/>
<path d="M25.0028 12.2341L9.52197 12.1465L9.50008 16.0167L24.9809 16.1043L25.0028 12.2341Z" stroke="#E4325A" stroke-width="1.5481" stroke-linecap="round" stroke-linejoin="round"/>
<path d="M17.2217 26.1793V19.9869" stroke="#E4325A" stroke-width="1.5481" stroke-linecap="round" stroke-linejoin="round"/>
<path d="M17.2624 12.1903L13.7792 12.1706C13.266 12.1677 12.7749 11.961 12.4141 11.5961C12.0532 11.2311 11.8521 10.7378 11.855 10.2246C11.8579 9.71134 12.0646 9.22029 12.4295 8.85944C12.7945 8.49859 13.2878 8.2975 13.8011 8.30041C16.5102 8.31573 17.2624 12.1903 17.2624 12.1903Z" stroke="#E4325A" stroke-width="1.5481" stroke-linecap="round" stroke-linejoin="round"/>
<path d="M17.2625 12.1903L20.7457 12.21C21.2589 12.2129 21.7523 12.0118 22.1172 11.6509C22.4822 11.2901 22.6889 10.799 22.6918 10.2858C22.6947 9.7726 22.4936 9.27925 22.1327 8.91429C21.7719 8.54934 21.2808 8.34268 20.7676 8.33977C18.0585 8.32445 17.2625 12.1903 17.2625 12.1903Z" stroke="#E4325A" stroke-width="1.5481" stroke-linecap="round" stroke-linejoin="round"/>
</svg>
