<svg width="35" height="35" viewBox="0 0 35 35" fill="none" xmlns="http://www.w3.org/2000/svg">
<circle cx="17.2215" cy="17.2216" r="17.0292" fill="#8DD7A8"/>
<path d="M23.4141 17.9955V25.7361H11.0293V17.9955" stroke="#1D964A" stroke-width="1.5481" stroke-linecap="round" stroke-linejoin="round"/>
<path d="M25.0033 13.339L9.52246 13.2514L9.50057 17.1216L24.9814 17.2092L25.0033 13.339Z" stroke="#1D964A" stroke-width="1.5481" stroke-linecap="round" stroke-linejoin="round"/>
<path d="M17.2217 25.7361V17.9955" stroke="#1D964A" stroke-width="1.5481" stroke-linecap="round" stroke-linejoin="round"/>
<path d="M17.2626 13.2951L13.7794 13.2754C13.2662 13.2725 12.7751 13.0658 12.4143 12.7009C12.0535 12.3359 11.8524 11.8426 11.8553 11.3294C11.8582 10.8161 12.0648 10.3251 12.4298 9.96424C12.7947 9.60339 13.2881 9.4023 13.8013 9.4052C16.5105 9.42053 17.2626 13.2951 17.2626 13.2951Z" stroke="#1D964A" stroke-width="1.5481" stroke-linecap="round" stroke-linejoin="round"/>
<path d="M17.2628 13.2952L20.746 13.3149C21.2592 13.3178 21.7525 13.1167 22.1175 12.7558C22.4824 12.395 22.6891 11.9039 22.692 11.3907C22.6949 10.8775 22.4938 10.3841 22.133 10.0192C21.7721 9.65423 21.2811 9.44757 20.7678 9.44466C18.0587 9.42934 17.2628 13.2952 17.2628 13.2952Z" stroke="#1D964A" stroke-width="1.5481" stroke-linecap="round" stroke-linejoin="round"/>
</svg>
