<svg width="17" height="16" viewBox="0 0 17 16" fill="none" xmlns="http://www.w3.org/2000/svg">
<path d="M8.50358 14.6667C12.1855 14.6667 15.1702 11.6819 15.1702 7.99999C15.1702 4.3181 12.1855 1.33333 8.50358 1.33333C4.82168 1.33333 1.83691 4.3181 1.83691 7.99999C1.83691 11.6819 4.82168 14.6667 8.50358 14.6667Z" stroke="black" stroke-linecap="round" stroke-linejoin="round"/>
<path d="M6.56348 6C6.72021 5.55444 7.02958 5.17874 7.43678 4.93942C7.84398 4.7001 8.32274 4.61262 8.78826 4.69247C9.25378 4.77232 9.67602 5.01435 9.98019 5.37568C10.2844 5.73702 10.4508 6.19435 10.4501 6.66666C10.4501 8 8.45014 8.66666 8.45014 8.66666" stroke="black" stroke-linecap="round" stroke-linejoin="round"/>
<path d="M8.50342 11.3333H8.51008" stroke="black" stroke-linecap="round" stroke-linejoin="round"/>
</svg>
